<?xml version="1.0" encoding="UTF-8"?>
<svg id="Layer_2" data-name="Layer 2" xmlns="http://www.w3.org/2000/svg" viewBox="0 0 843.2 73.18">
  <defs>
    <style>
      .cls-1 {
        fill: #fff;
      }
    </style>
  </defs>
  <g id="Layer_1-2" data-name="Layer 1">
    <g>
      <path class="cls-1" d="M41.8,17.02c-1.11-3.18-1.92-4.74-3.48-6.51-2.96-3.48-7.4-5.33-12.8-5.33C13.54,5.18,5.99,14.35,5.99,29.08s7.62,23.97,19.53,23.97c5.85,0,10.8-2.22,13.84-6.22,1.55-2.15,2.29-4,2.96-7.4l6.14,1.48c-1.26,4.37-2.22,6.44-4,8.81-4.14,5.55-10.88,8.58-19.16,8.58-7.1,0-13.1-2.22-17.31-6.51C2.81,46.61,0,38.55,0,29.3S2.96,11.69,8.43,6.29C12.73,2.15,18.35,0,25.38,0s12.58,2,16.57,5.99c2.59,2.52,4,4.74,5.77,9.32l-5.92,1.7Z"/>
      <path class="cls-1" d="M55.49,37.36c0-12.8,7.7-20.94,19.75-20.94s19.68,8.14,19.68,20.86-7.7,20.94-19.61,20.94-19.83-8.06-19.83-20.87ZM61.19,37.22c0,10.06,5.4,16.2,14.06,16.2s13.98-6.14,13.98-16.13-5.33-16.2-13.84-16.2-14.21,6.14-14.21,16.13Z"/>
      <path class="cls-1" d="M103.59,57.27c.44-2.81.59-4.81.59-8.36v-23.16c0-3.33-.15-5.4-.59-8.36h6.14v5.03c0,.89,0,1.48-.22,3.18,3.48-6.07,8.29-8.95,14.95-8.95,5.33,0,9.47,1.92,11.84,5.55,1.41,2.15,2.07,4.88,2.07,8.51v18.28c0,3.77.15,5.85.52,8.29h-6.66c.37-2.89.52-5.11.52-8.36v-17.24c0-6.66-3.18-10.21-9.03-10.21-4.14,0-7.47,1.85-10.58,5.85-1.92,2.52-2.81,4.37-3.4,7.32v14.28c0,3.26.15,5.48.52,8.36h-6.66Z"/>
      <path class="cls-1" d="M151.61,22.12c-2.59,0-4.44.15-6.73.44v-5.62c2,.3,3.77.44,6.73.44h3.03v-4.37c0-4.51.59-6.88,2.29-9.03,1.78-2.29,5.18-3.63,9.32-3.63,2.89,0,5.18.44,7.84,1.48l-1.55,4.96c-2-1.18-3.85-1.7-6.14-1.7s-4.07.67-5.03,2c-.81,1.18-1.11,2.74-1.11,6.21v4.07h3.7c3.18,0,5.11-.07,7.84-.44v5.62c-2.52-.37-4.22-.44-7.84-.44h-3.7v26.86c0,3.48.15,5.55.52,8.29h-6.66c.37-2.74.52-5.25.52-8.36v-26.78h-3.03ZM184.75,1.04v6.58h-7.18V1.04h7.18ZM184.46,17.39c-.37,2.59-.52,4.66-.52,8.36v23.16c0,3.4.15,5.48.52,8.36h-6.66c.37-3.18.52-5.25.52-8.36v-23.16c0-3.55-.15-5.77-.52-8.36h6.66Z"/>
      <path class="cls-1" d="M199.78,62.45c1.04,1.41,1.48,1.92,2.37,2.59,2.81,2.44,5.92,3.48,9.92,3.48,6.44,0,10.95-2.81,12.87-8.14.74-2.15,1.04-4.81,1.33-10.95-1.11,2-1.92,2.96-3.18,4.07-2.81,2.52-6.96,3.85-11.47,3.85-11.17,0-18.28-7.77-18.28-20.12s7.25-20.57,18.72-20.57c6.44,0,11.17,2.59,14.21,7.77-.07-1.26-.15-1.85-.15-2.81v-4.22h5.92c-.37,2.89-.52,4.81-.52,8.29v26.49c0,7.25-1.33,11.91-4.29,15.39-3.11,3.63-8.66,5.62-15.39,5.62-7.32,0-11.91-2.07-16.79-7.4l4.74-3.33ZM211.91,52.68c8.43,0,14.06-6.44,14.06-16.06s-5.33-15.32-13.61-15.32-13.24,6.07-13.24,15.91,4.88,15.46,12.8,15.46Z"/>
      <path class="cls-1" d="M271.69,52.46c0-.81,0-1.33.22-3.26-3.7,6.07-8.29,8.8-14.95,8.8-5.33,0-9.47-1.92-11.84-5.48-1.33-2.15-2.07-5.03-2.07-8.58v-18.28c0-3.33-.15-5.92-.52-8.29h6.66c-.37,2.59-.52,5.11-.52,8.36v17.24c0,6.59,3.18,10.28,8.95,10.28,4.22,0,7.69-1.85,10.65-5.85,1.92-2.59,2.74-4.44,3.4-7.4v-14.28c0-3.18-.15-5.77-.52-8.36h6.58c-.37,2.59-.52,4.96-.52,8.36v23.16c0,3.33.15,5.4.59,8.36h-6.14v-4.81Z"/>
      <path class="cls-1" d="M312.32,23.08c-2.81-.89-4.14-1.11-5.99-1.11-3.77,0-6.88,1.55-9.1,4.51-1.78,2.29-2.44,4.07-2.74,7.4v15.09c0,3.33.15,5.4.52,8.29h-6.66c.37-3.4.52-5.33.52-8.36v-23.16c0-3.7-.15-5.7-.52-8.36h6.14v4.22c0,.59,0,1.7-.07,2.22,1.41-2.29,2.52-3.48,4.07-4.51,2.81-1.85,5.33-2.59,8.88-2.59,2.22,0,3.48.15,6.59.67l-1.63,5.7Z"/>
      <path class="cls-1" d="M346.5,52.01c-2.89,2.59-4.29,3.55-6.81,4.51-2.52.96-5.18,1.48-7.69,1.48-8.14,0-13.1-4.22-13.1-11.25,0-5.92,3.7-10.21,10.58-12.13,4.37-1.26,7.92-1.7,17.02-1.92v-4.29c0-5.03-3.18-7.62-9.32-7.62-4.07,0-7.1,1.04-9.17,3.18-.96,1.04-1.55,2.07-2.29,4.29l-5.77-1.26c1.33-3.4,2.29-4.96,4.14-6.59,3.03-2.81,7.47-4.22,13.02-4.22,9.77,0,14.8,4.14,14.8,12.13v20.79c0,3.33.15,5.18.59,8.14h-5.99v-5.25ZM346.5,37.07c-8.8.22-13.02.74-16.35,2.15-3.77,1.55-5.62,4.07-5.62,7.62,0,4.07,3.03,6.66,7.84,6.66,4.29,0,8.95-2.07,11.84-5.25,1.7-1.85,2.29-3.4,2.29-6.36v-4.81Z"/>
      <path class="cls-1" d="M374.02,6.36c-.37,2.37-.52,5.03-.52,8.21v2.81h3.55c3.4,0,4.96-.07,7.55-.44v5.62c-2.37-.37-4.22-.44-7.55-.44h-3.55v25.75c0,2.15.3,3.26.96,3.92.81.81,2.07,1.26,3.63,1.26,1.92,0,3.4-.44,5.84-1.92l1.63,5.18c-3.03,1.26-5.33,1.7-8.36,1.7-3.25,0-5.77-.81-7.25-2.29-1.48-1.48-2.07-3.63-2.07-7.1v-26.49h-2.96c-2.52,0-4.22.15-6.66.44v-5.62c2.07.37,3.55.44,6.66.44h2.96v-2.81c0-2.96-.15-5.77-.52-8.21h6.66Z"/>
      <path class="cls-1" d="M398.81,1.04v6.58h-7.18V1.04h7.18ZM398.51,17.39c-.37,2.59-.52,4.66-.52,8.36v23.16c0,3.4.15,5.48.52,8.36h-6.66c.37-3.18.52-5.25.52-8.36v-23.16c0-3.55-.15-5.77-.52-8.36h6.66Z"/>
      <path class="cls-1" d="M407.47,37.36c0-12.8,7.7-20.94,19.76-20.94s19.68,8.14,19.68,20.86-7.69,20.94-19.61,20.94-19.83-8.06-19.83-20.87ZM413.16,37.22c0,10.06,5.4,16.2,14.06,16.2s13.98-6.14,13.98-16.13-5.33-16.2-13.84-16.2-14.21,6.14-14.21,16.13Z"/>
      <path class="cls-1" d="M455.56,57.27c.44-2.81.59-4.81.59-8.36v-23.16c0-3.33-.15-5.4-.59-8.36h6.14v5.03c0,.89,0,1.48-.22,3.18,3.48-6.07,8.29-8.95,14.95-8.95,5.33,0,9.47,1.92,11.84,5.55,1.41,2.15,2.07,4.88,2.07,8.51v18.28c0,3.77.15,5.85.52,8.29h-6.66c.37-2.89.52-5.11.52-8.36v-17.24c0-6.66-3.18-10.21-9.03-10.21-4.14,0-7.47,1.85-10.58,5.85-1.92,2.52-2.81,4.37-3.4,7.32v14.28c0,3.26.15,5.48.52,8.36h-6.66Z"/>
      <path class="cls-1" d="M535.32,16.5c-1.11-2.37-1.92-4.66-3.33-9.17.22,3.18.52,7.77.52,9.54v31.67c0,3.92.15,6.22.59,8.73h-6.73c.44-2.74.59-4.88.59-8.73V9.84c0-3.7-.15-6.07-.59-8.8h8.58c.44,2.22,1.33,4.88,2.44,7.33l18.28,40.77,18.2-40.77c1.26-2.89,2.07-5.18,2.52-7.33h8.51c-.44,2.81-.59,4.96-.59,8.8v38.7c0,4.07.15,6.07.59,8.73h-6.73c.44-2.52.59-5.18.59-8.73V16.43c0-2.07.22-6.07.52-9.1-.74,3.03-1.78,5.99-3.18,9.03l-15.09,33.22c-1.48,3.33-2.22,5.25-2.81,7.69h-5.25c-.37-1.92-1.26-4.44-2.74-7.77l-14.87-33Z"/>
      <path class="cls-1" d="M622.19,52.01c-2.89,2.59-4.29,3.55-6.81,4.51-2.52.96-5.18,1.48-7.69,1.48-8.14,0-13.1-4.22-13.1-11.25,0-5.92,3.7-10.21,10.58-12.13,4.37-1.26,7.92-1.7,17.02-1.92v-4.29c0-5.03-3.18-7.62-9.32-7.62-4.07,0-7.1,1.04-9.17,3.18-.96,1.04-1.55,2.07-2.29,4.29l-5.77-1.26c1.33-3.4,2.29-4.96,4.14-6.59,3.03-2.81,7.47-4.22,13.02-4.22,9.77,0,14.8,4.14,14.8,12.13v20.79c0,3.33.15,5.18.59,8.14h-5.99v-5.25ZM622.19,37.07c-8.8.22-13.02.74-16.35,2.15-3.77,1.55-5.62,4.07-5.62,7.62,0,4.07,3.03,6.66,7.84,6.66,4.29,0,8.95-2.07,11.84-5.25,1.7-1.85,2.29-3.4,2.29-6.36v-4.81Z"/>
      <path class="cls-1" d="M638.39,57.27c.44-2.81.59-4.81.59-8.36v-23.16c0-3.33-.15-5.4-.59-8.36h6.14v5.03c0,.89,0,1.48-.22,3.18,3.48-6.07,8.29-8.95,14.95-8.95,5.33,0,9.47,1.92,11.84,5.55,1.41,2.15,2.07,4.88,2.07,8.51v18.28c0,3.77.15,5.85.52,8.29h-6.66c.37-2.89.52-5.11.52-8.36v-17.24c0-6.66-3.18-10.21-9.03-10.21-4.14,0-7.47,1.85-10.58,5.85-1.92,2.52-2.81,4.37-3.4,7.32v14.28c0,3.26.15,5.48.52,8.36h-6.66Z"/>
      <path class="cls-1" d="M710.46,52.01c-2.89,2.59-4.29,3.55-6.81,4.51-2.52.96-5.18,1.48-7.69,1.48-8.14,0-13.1-4.22-13.1-11.25,0-5.92,3.7-10.21,10.58-12.13,4.37-1.26,7.92-1.7,17.02-1.92v-4.29c0-5.03-3.18-7.62-9.32-7.62-4.07,0-7.1,1.04-9.17,3.18-.96,1.04-1.55,2.07-2.29,4.29l-5.77-1.26c1.33-3.4,2.29-4.96,4.14-6.59,3.03-2.81,7.47-4.22,13.02-4.22,9.77,0,14.8,4.14,14.8,12.13v20.79c0,3.33.15,5.18.59,8.14h-5.99v-5.25ZM710.46,37.07c-8.8.22-13.02.74-16.35,2.15-3.77,1.55-5.62,4.07-5.62,7.62,0,4.07,3.03,6.66,7.84,6.66,4.29,0,8.95-2.07,11.84-5.25,1.7-1.85,2.29-3.4,2.29-6.36v-4.81Z"/>
      <path class="cls-1" d="M731.25,62.45c1.04,1.41,1.48,1.92,2.37,2.59,2.81,2.44,5.92,3.48,9.92,3.48,6.44,0,10.95-2.81,12.87-8.14.74-2.15,1.04-4.81,1.33-10.95-1.11,2-1.92,2.96-3.18,4.07-2.81,2.52-6.96,3.85-11.47,3.85-11.17,0-18.28-7.77-18.28-20.12s7.25-20.57,18.72-20.57c6.44,0,11.17,2.59,14.21,7.77-.07-1.26-.15-1.85-.15-2.81v-4.22h5.92c-.37,2.89-.52,4.81-.52,8.29v26.49c0,7.25-1.33,11.91-4.29,15.39-3.11,3.63-8.66,5.62-15.39,5.62-7.33,0-11.91-2.07-16.8-7.4l4.74-3.33ZM743.38,52.68c8.44,0,14.06-6.44,14.06-16.06s-5.33-15.32-13.61-15.32-13.24,6.07-13.24,15.91,4.88,15.46,12.8,15.46Z"/>
      <path class="cls-1" d="M777.86,38.18c.22,4.96.96,7.69,2.96,10.36,2.37,3.26,5.99,5.03,10.43,5.03,5.99,0,10.14-2.96,12.21-8.66l5.18,2.07c-1.41,3.11-2.37,4.44-4.07,6.14-3.48,3.4-7.99,5.18-13.39,5.18-11.62,0-18.94-8.14-18.94-20.94s7.25-20.94,18.35-20.94c9.54,0,16.43,6.14,17.91,16.06.07.81.37,3.7.52,5.7h-31.15ZM803.09,33.52c-.44-4.14-1.55-6.81-3.92-9.1-2.29-2.22-5.18-3.33-8.73-3.33-4.51,0-8.29,2.29-10.51,6.44-1.04,1.85-1.41,3.18-1.85,5.99h25.01Z"/>
      <path class="cls-1" d="M841.57,23.08c-2.81-.89-4.14-1.11-5.99-1.11-3.77,0-6.88,1.55-9.1,4.51-1.78,2.29-2.44,4.07-2.74,7.4v15.09c0,3.33.15,5.4.52,8.29h-6.66c.37-3.4.52-5.33.52-8.36v-23.16c0-3.7-.15-5.7-.52-8.36h6.14v4.22c0,.59,0,1.7-.07,2.22,1.41-2.29,2.52-3.48,4.07-4.51,2.81-1.85,5.33-2.59,8.88-2.59,2.22,0,3.48.15,6.58.67l-1.63,5.7Z"/>
    </g>
  </g>
</svg>